ply
format ascii 1.0
comment PCL generated
element vertex 364
property float x
property float y
property float z
property float nx
property float ny
property float nz
property float curvature
element face 645
property list uchar int vertex_indices
end_header
-0.023402 -0.0187 -0.019639 0.75012 0.59753 0.28332 0.022562 
-0.022086 -0.017117 -0.026685 0.66271 0.34375 0.66532 0.027458 
-0.02864 -0.0095015 -0.01263 0.96951 0.20594 0.13283 0.0072319 
-0.027048 -0.0094915 -0.021143 0.93607 0.16644 0.30995 0.0069061 
-0.023044 -0.012014 -0.027127 0.74027 0.23578 0.62961 0.022568 
-0.028748 -0.0023635 -0.013673 0.98786 -0.12282 0.095104 0.010661 
-0.027326 -0.0036105 -0.022063 0.92529 -0.023536 0.37852 0.012368 
-0.024204 -0.0031385 -0.027932 0.7844 -0.055646 0.61775 0.022353 
-0.019998 -0.0038295 -0.029694 0.61661 -0.048151 0.78579 0.032727 
-0.028515 -0.00050047 -0.015709 0.96127 -0.19753 0.19219 0.011838 
-0.026995 0.0017185 -0.020878 0.89592 -0.28401 0.34156 0.018346 
-0.022522 0.0026105 -0.02776 0.67538 -0.35496 0.64643 0.035079 
-0.025695 0.0064915 -0.018495 0.85228 -0.47189 0.22571 0.014811 
-0.021112 0.0074035 -0.028117 0.60741 -0.44233 0.65985 0.034779 
-0.023493 -0.021831 -0.0077556 0.72767 0.68144 0.078331 0.029493 
-0.015824 -0.024565 -0.025322 0.47727 0.81598 0.32617 0.046918 
-0.013299 -0.023147 -0.030277 0.35355 0.81709 0.45537 0.050796 
-0.027054 -0.01706 -0.0024645 0.87636 0.47324 0.089712 0.017359 
-0.026887 -0.017349 -0.0092083 0.84309 0.52705 0.10685 0.011538 
-0.024071 -0.019656 -0.017193 0.7596 0.61058 0.22405 0.015397 
-0.020497 -0.020883 -0.024047 0.65815 0.61893 0.42868 0.026423 
-0.015347 -0.021899 -0.031297 0.39869 0.67659 0.61909 0.077933 
-0.028567 -0.0099555 -0.0031966 0.9903 0.13823 0.013925 0.010248 
-0.028886 -0.011056 -0.0089925 0.97426 0.20715 0.088884 0.006276 
-0.026722 -0.014213 -0.018739 0.92303 0.30452 0.23512 0.0087602 
-0.023346 -0.013842 -0.026079 0.73486 0.32558 0.59497 0.027034 
-0.017331 -0.013282 -0.030296 0.66271 0.34375 0.66532 0.027457 
-0.028834 -0.0025885 -0.00077351 0.98944 -0.14331 0.021723 0.0075975 
-0.029041 -0.0033235 -0.0093337 0.99167 -0.12222 0.040616 0.0085814 
-0.028719 -0.0041205 -0.016723 0.98102 -0.056698 0.18542 0.01352 
-0.024741 -0.0037535 -0.02706 0.79695 -0.042717 0.60253 0.024175 
-0.017034 -0.0047805 -0.030561 0.50566 8.1499e-05 0.86273 0.026949 
-0.026988 0.0024685 -0.00046714 0.92746 -0.37285 0.028392 0.0096629 
-0.027112 0.0039965 -0.010275 0.90548 -0.42329 0.030409 0.0069843 
-0.026611 0.0040945 -0.017544 0.89443 -0.36151 0.26325 0.0099198 
-0.022974 0.0058635 -0.025976 0.63407 -0.38424 0.67106 0.031398 
-0.015306 0.0047185 -0.030492 0.3754 -0.37464 0.84777 0.021878 
-0.01118 0.0048585 -0.030565 0.3963 -0.43811 0.80685 0.027724 
-0.022465 0.010359 -0.01764 0.72339 -0.66782 0.17527 0.011662 
-0.01867 0.011819 -0.024441 0.57346 -0.67174 0.46895 0.030701 
-0.013758 0.011593 -0.030046 0.32853 -0.74217 0.58417 0.031415 
-0.01631 0.013973 -0.022189 0.44579 -0.80101 0.39957 0.034403 
-0.023645 -0.022486 0.0029704 0.70301 0.71091 0.01944 0.012496 
-0.02047 -0.024381 -0.0063437 0.57432 0.80921 0.12381 0.018714 
-0.017612 -0.025055 -0.008726 0.4897 0.85902 0.14922 0.015766 
-0.01317 -0.026003 -0.018991 0.34791 0.91596 0.19993 0.022472 
-0.0076564 -0.026524 -0.027105 0.19396 0.91163 0.36237 0.047932 
-0.027427 -0.016534 0.014029 0.90784 0.41332 0.070635 0.021705 
-0.026148 -0.019229 0.0039704 0.8194 0.57297 0.016706 0.01353 
-0.023922 -0.022388 -0.0035559 0.73084 0.67993 0.059778 0.031592 
-0.021689 -0.023756 -0.011926 0.58287 0.80249 0.12757 0.018631 
-0.016334 -0.024724 -0.021295 0.52474 0.80384 0.28015 0.040644 
-0.010091 -0.024249 -0.027003 0.33724 0.8689 0.36234 0.047694 
-0.030383 -0.01046 0.021396 0.96761 0.12079 0.2217 0.0117 
-0.029012 -0.010111 0.011832 0.98426 0.15756 0.080017 0.013681 
-0.029046 -0.012925 0.004113 0.97102 0.23331 0.051886 0.0087751 
-0.028143 -0.014751 -0.0045902 0.94585 0.32052 0.051408 0.017263 
-0.026379 -0.017214 -0.012974 0.84828 0.51344 0.12962 0.012154 
-0.02294 -0.017299 -0.022241 0.74522 0.55229 0.37366 0.027141 
-0.012593 -0.017765 -0.029524 0.37856 0.51458 0.76935 0.067506 
-0.03069 -0.0036745 0.020093 0.98976 -0.072775 0.12278 0.02486 
-0.029522 -0.0040345 0.012961 0.99337 -0.051827 0.10262 0.015384 
-0.029323 -0.0037435 0.0055545 0.98038 -0.18294 0.073461 0.01361 
-0.029693 -0.0041175 -0.0034145 0.99855 -0.053741 0.0028162 0.0094917 
-0.029008 -0.0032805 -0.013593 0.98786 -0.12281 0.095105 0.01066 
-0.025001 0.0021875 -0.022934 0.84614 -0.28736 0.44886 0.024428 
-0.027681 0.0019475 0.012452 0.93042 -0.36001 0.068702 0.0087 
-0.026725 0.0030875 0.0027147 0.93291 -0.35902 0.027893 0.0074791 
-0.026279 0.0058775 -0.0035334 0.87873 -0.47658 0.026534 0.0080139 
-0.025002 0.0084045 -0.011945 0.85271 -0.51693 0.075312 0.011539 
-0.020096 0.01079 -0.021987 0.61648 -0.70442 0.35178 0.021502 
-0.012203 0.0091645 -0.028546 0.35857 -0.61099 0.70577 0.045953 
-0.023722 0.0095005 0.0043617 0.82783 -0.55699 0.066732 0.013369 
-0.022243 0.01166 -0.0042107 0.72144 -0.69175 0.031781 0.009049 
-0.018742 0.01421 -0.010983 0.57357 -0.81422 0.089827 0.01179 
-0.014355 0.015621 -0.01974 0.35566 -0.9038 0.23802 0.01343 
-0.0083547 0.014166 -0.026978 0.23973 -0.8285 0.50607 0.032515 
-0.0037764 0.011224 -0.030372 0.11158 -0.72322 0.68154 0.031834 
-0.016554 0.015417 -0.010769 0.57357 -0.81422 0.089827 0.011791 
-0.010592 0.017169 -0.019135 0.28576 -0.91638 0.28034 0.017405 
-0.0085009 0.015879 -0.025539 0.23973 -0.8285 0.50607 0.032514 
-0.0036323 0.014145 -0.030601 0.11158 -0.72322 0.68154 0.031834 
-0.023076 -0.024634 0.018633 0.70828 0.67698 0.20006 0.0096507 
-0.019485 -0.026396 0.01169 0.63793 0.75776 0.13727 0.014855 
-0.015704 -0.02751 0.0022925 0.42458 0.89935 0.10438 0.014589 
-0.011499 -0.027708 -0.0050403 0.27416 0.95367 0.12391 0.0071193 
-0.0070745 -0.026715 -0.013756 0.11705 0.98768 0.10384 0.0067379 
-0.0013393 -0.027576 -0.021268 -0.027033 0.96486 0.26138 0.021943 
0.0033482 -0.025942 -0.02724 -0.20183 0.86915 0.45149 0.043256 
-0.031245 -0.020323 0.035013 0.8369 0.50421 0.21302 0.012986 
-0.029117 -0.017002 0.025615 0.85604 0.4491 0.25595 0.024372 
-0.025306 -0.021173 0.017389 0.80001 0.59334 0.08903 0.014254 
-0.023969 -0.022222 0.010983 0.7605 0.64367 0.085619 0.017248 
-0.020499 -0.026071 0.0023147 0.59217 0.80513 0.03313 0.014924 
-0.014697 -0.026761 -0.005984 0.26674 0.95929 0.092848 0.007111 
-0.0087415 -0.026383 -0.014566 0.1301 0.98351 0.12561 0.0066818 
-0.00039956 -0.026297 -0.021152 -0.092791 0.96624 0.24034 0.015421 
0.001454 -0.023497 -0.026484 -0.11253 0.92239 0.3695 0.02639 
-0.034515 -0.011391 0.033765 0.95241 0.080384 0.29403 0.028669 
-0.031068 -0.012192 0.025517 0.95501 0.16443 0.24681 0.015994 
-0.029284 -0.013177 0.017135 0.96452 0.24017 0.10967 0.01416 
-0.028203 -0.01515 0.0090023 0.96853 0.24356 0.051327 0.0097554 
-0.027149 -0.017775 0.00064904 0.90262 0.42891 0.036396 0.0097472 
-0.022619 -0.022719 -0.0062777 0.67376 0.73365 0.088351 0.020198 
-0.037703 -0.0041215 0.035389 0.92252 -0.087774 0.37584 0.033685 
-0.031597 -0.0027965 0.025021 0.93789 -0.18437 0.2939 0.026111 
-0.029874 -0.0034215 0.016694 0.98161 -0.025231 0.18924 0.015597 
-0.029745 -0.0036245 0.0091846 0.99221 -0.10675 0.064156 0.011777 
-0.029142 -0.0028885 0.0019306 0.97997 -0.19248 0.051122 0.011098 
0.0079803 -0.00045747 -0.02621 -0.73358 -0.45286 0.50673 0.077285 
-0.033813 0.0030175 0.035002 0.8916 -0.33912 0.30008 0.03166 
-0.030444 0.0010535 0.027607 0.89764 -0.30584 0.31734 0.02497 
-0.027374 0.0044685 0.018127 0.89229 -0.43077 0.13513 0.004383 
-0.025783 0.0067805 0.010176 0.89024 -0.45361 0.041498 0.0074555 
-0.025007 0.0089695 0.0016148 0.84752 -0.53065 0.01066 0.011159 
-0.019494 0.013089 -0.0067745 0.66298 -0.74773 0.036705 0.015549 
-0.0035893 0.010904 -0.028146 0.11158 -0.72322 0.68154 0.031833 
0.0084555 0.0096715 -0.031424 -0.45243 -0.68678 0.5689 0.064792 
0.0067956 0.0037345 -0.033678 -0.3804 -0.42094 0.82347 0.051599 
-0.02719 0.0080485 0.027943 0.80363 -0.52792 0.27474 0.013769 
-0.023432 0.011249 0.018653 0.7719 -0.61564 0.15858 0.0095014 
-0.021186 0.013288 0.010393 0.72488 -0.68574 0.065644 0.012397 
-0.017774 0.015728 0.0011434 0.55593 -0.82875 0.064196 0.015407 
-0.01325 0.017718 -0.0065125 0.35732 -0.92638 0.11896 0.010715 
-0.007173 0.01769 -0.014455 0.13568 -0.9809 0.13939 0.011943 
-0.0012147 0.01656 -0.021112 -0.09434 -0.95551 0.27947 0.015066 
0.0031251 0.013751 -0.02983 -0.29064 -0.84301 0.45262 0.026341 
0.0074552 0.0098275 -0.032035 -0.45243 -0.68678 0.5689 0.064792 
-0.017351 0.017209 0.011038 0.53171 -0.84193 0.091886 0.017258 
-0.014974 0.01728 9.1165e-05 0.48198 -0.87046 0.099932 0.0091216 
-0.011824 0.017913 -0.0060072 0.31375 -0.94566 0.085324 0.0069284 
-0.0061614 0.018458 -0.013473 0.10291 -0.97976 0.1717 0.0076777 
-0.0018775 0.017428 -0.020784 -0.023971 -0.95683 0.28965 0.013962 
0.0028473 0.015231 -0.026378 -0.28168 -0.85737 0.43077 0.025634 
-0.013656 -0.030074 0.018187 0.4086 0.88655 0.21697 0.010771 
-0.023317 -0.026302 0.030541 0.70179 0.67769 0.21961 0.014324 
-0.019549 -0.028505 0.025305 0.60717 0.77295 0.18408 0.015626 
-0.015316 -0.02905 0.016695 0.43461 0.88687 0.15674 0.012814 
-0.0091684 -0.0301 0.0086427 0.249 0.95567 0.15712 0.010938 
-0.0050301 -0.029341 2.4238e-05 0.081273 0.98282 0.16568 0.0050271 
6.1376e-05 -0.02877 -0.0072692 -0.10206 0.98519 0.1378 0.013538 
0.005343 -0.026771 -0.015807 -0.23868 0.95075 0.19776 0.016141 
0.0093632 -0.024392 -0.021878 -0.55855 0.75939 0.33369 0.02528 
-0.027654 -0.023444 0.03173 0.77476 0.59613 0.21067 0.01105 
-0.023296 -0.025309 0.024825 0.68142 0.70542 0.19505 0.0082184 
-0.019521 -0.027224 0.015235 0.59693 0.79307 0.12127 0.013361 
-0.01357 -0.02862 0.0069609 0.30076 0.94691 0.1136 0.0096001 
-0.0039363 -0.028754 -0.00011908 0.059297 0.98397 0.1682 0.0064647 
-0.0010971 -0.028144 -0.0086103 -0.061934 0.98691 0.14894 0.010239 
0.0071951 -0.025579 -0.014708 -0.29759 0.93632 0.18639 0.012931 
0.012372 -0.022503 -0.022862 -0.59008 0.73137 0.34193 0.025923 
0.01331 -0.018921 -0.025757 -0.6358 0.67789 0.36908 0.023102 
-0.035455 -0.01409 0.035298 0.91277 0.29929 0.27799 0.03467 
-0.032822 -0.014654 0.031073 0.9075 0.29094 0.30299 0.028669 
-0.029851 -0.016281 0.022856 0.89471 0.38971 0.21822 0.020827 
-0.02808 -0.017775 0.015601 0.90492 0.41553 0.091934 0.020199 
0.019675 -0.012621 -0.020159 -0.93111 0.28905 0.22244 0.022226 
0.017948 -0.014075 -0.02255 -0.87569 0.39007 0.28463 0.027741 
0.015387 -0.011706 -0.026726 -0.81889 0.17683 0.54603 0.0793 
-0.037331 -0.0017035 0.036455 0.91497 -0.17071 0.36563 0.03696 
-0.034112 -0.0028975 0.029959 0.91897 -0.11901 0.37593 0.026318 
-0.031202 -0.0020885 0.022844 0.97562 -0.13876 0.17003 0.02012 
-0.029622 -0.00072147 0.01366 0.9612 -0.26287 0.083668 0.015171 
0.02062 -0.0011435 -0.020588 -0.96833 -0.20576 0.14145 0.011521 
0.01827 -0.00016647 -0.025381 -0.92513 -0.16207 0.34331 0.079967 
0.018761 -0.0029675 -0.031345 -0.81195 -0.079877 0.57823 0.082224 
-0.035278 0.0056015 0.03839 0.8916 -0.33912 0.30009 0.03166 
-0.029792 0.0068255 0.031991 0.79456 -0.5184 0.31612 0.0095146 
-0.026207 0.0089935 0.023771 0.83576 -0.52172 0.17121 0.010557 
-0.024537 0.0097615 0.014654 0.86467 -0.49847 0.06226 0.0085575 
-0.02025 0.014542 0.0087072 0.72842 -0.68334 0.049396 0.012107 
0.012485 0.011399 -0.017995 -0.68647 -0.69838 0.20256 0.01075 
0.014394 0.0083675 -0.025708 -0.68419 -0.62045 0.3833 0.052206 
0.015722 0.0041785 -0.030197 -0.76218 -0.53281 0.36768 0.060095 
-0.025586 0.012664 0.031354 0.73502 -0.64257 0.21647 0.016575 
-0.021146 0.015102 0.024322 0.67935 -0.71957 0.14389 0.0077018 
-0.017625 0.017097 0.015617 0.57988 -0.80675 0.11355 0.013356 
-0.013251 0.018789 0.0075993 0.40921 -0.9078 0.091917 0.019269 
-0.0056102 0.019527 -0.00037222 0.12001 -0.98817 0.095481 0.0070507 
0.00084475 0.01907 -0.0074699 -0.117 -0.98191 0.14886 0.0094686 
0.0071805 0.01636 -0.016555 -0.40183 -0.90193 0.15829 0.019552 
0.0098171 0.012774 -0.022213 -0.55549 -0.79037 0.25835 0.014782 
0.012137 0.0085955 -0.02907 -0.67023 -0.62264 0.40386 0.051909 
-0.018871 0.018037 0.029958 0.59346 -0.79866 0.099755 0.012406 
-0.018639 0.017207 0.024949 0.6033 -0.78873 0.11809 0.009454 
-0.012688 0.0204 0.015863 0.44016 -0.88868 0.12848 0.015253 
-0.009613 0.019994 0.007848 0.26494 -0.9575 0.11402 0.011497 
-0.0037786 0.020524 0.00033614 0.029836 -0.9948 0.097397 0.010643 
0.00037974 0.019485 -0.0076179 -0.117 -0.98191 0.14886 0.0094687 
0.0043301 0.016888 -0.014903 -0.30175 -0.93088 0.20591 0.01051 
0.0051577 0.016066 -0.021078 -0.30883 -0.90429 0.29476 0.021316 
-0.010634 -0.034619 0.030013 0.29797 0.94208 0.15397 0.014249 
-0.0051073 -0.032168 0.017063 0.14981 0.95375 0.26062 0.0054908 
0.006391 -0.028795 -0.0026589 -0.31034 0.94001 0.14164 0.014725 
-0.020648 -0.032284 0.035211 0.5234 0.83911 0.14814 0.01946 
-0.014946 -0.032829 0.029547 0.40758 0.89547 0.17892 0.011508 
-0.0088898 -0.033434 0.021939 0.23277 0.94136 0.24424 0.0072894 
-0.0027357 -0.031884 0.014816 0.05735 0.97116 0.23142 0.010818 
0.0022323 -0.030266 0.0069184 -0.1114 0.97113 0.21095 0.014548 
0.0061688 -0.029053 -0.0015388 -0.31034 0.94001 0.14164 0.014726 
0.010522 -0.025875 -0.0087101 -0.51163 0.85063 0.1211 0.014281 
0.012945 -0.023855 -0.016801 -0.59737 0.7725 0.21541 0.01684 
-0.022832 -0.028305 0.033864 0.61358 0.77009 0.17458 0.019103 
-0.020963 -0.029156 0.027344 0.58989 0.78911 0.17131 0.012743 
-0.015483 -0.030145 0.020217 0.44937 0.86998 0.20299 0.0094742 
0.0027453 -0.02958 0.0057536 -0.11241 0.977 0.18121 0.013999 
0.010282 -0.026806 -0.0031196 -0.4366 0.89333 0.10654 0.017876 
0.014306 -0.022924 -0.010063 -0.67299 0.73428 0.089011 0.010895 
0.016323 -0.020291 -0.015523 -0.73543 0.65643 0.16807 0.012799 
0.017 -0.018713 -0.023559 -0.71944 0.60293 0.34478 0.021183 
0.021215 -0.017073 -0.0049066 -0.89696 0.42714 0.11411 0.028174 
0.019617 -0.016762 -0.011422 -0.86382 0.49554 0.090904 0.019777 
0.020833 -0.01297 -0.017981 -0.93181 0.29207 0.21547 0.022221 
0.019533 -0.011805 -0.023287 -0.92318 0.24549 0.29576 0.028159 
0.021873 0.00067053 -0.006538 -0.95152 -0.26171 0.16159 0.0096677 
0.020638 0.0018585 -0.0089977 -0.9326 -0.31974 0.16739 0.0070872 
0.020908 -0.0040515 -0.017812 -0.99035 -0.060297 0.12478 0.0096768 
0.020237 -0.0041085 -0.026182 -0.94064 -0.13598 0.31097 0.080094 
0.019045 -0.0064455 -0.030208 -0.85373 0.068001 0.51626 0.078412 
-0.027833 0.012353 0.033057 0.75894 -0.59613 0.26199 0.013894 
-0.024384 0.014363 0.030492 0.71569 -0.67461 0.18079 0.01115 
0.014582 0.014289 -0.0038243 -0.75046 -0.63491 0.18359 0.0098615 
0.017339 0.0076345 -0.011428 -0.84001 -0.50122 0.20775 0.0065049 
0.017729 0.0046095 -0.017056 -0.8622 -0.48963 0.1299 0.006881 
0.018006 0.0018025 -0.024417 -0.89652 -0.36359 0.2531 0.077645 
0.018386 0.0012255 -0.029278 -0.81131 -0.27452 0.51616 0.079795 
-0.022788 0.015633 0.034421 0.64255 -0.75111 0.15151 0.019187 
-0.017065 0.019256 0.030198 0.55023 -0.8256 0.12503 0.013615 
-0.011561 0.021435 0.020915 0.31932 -0.94267 0.096969 0.0076557 
-0.0036697 0.020933 0.013168 0.052723 -0.98979 0.13243 0.012285 
0.0034867 0.020023 0.0062833 -0.20472 -0.9751 0.085261 0.0072149 
0.0093992 0.018155 -0.0021943 -0.39858 -0.90677 0.1375 0.010248 
0.012582 0.013869 -0.0097665 -0.62846 -0.75495 0.18733 0.025001 
0.01493 0.010022 -0.015579 -0.73378 -0.65185 0.19149 0.011844 
0.015348 0.0066955 -0.025494 -0.7282 -0.58509 0.35693 0.053632 
-0.016793 0.019945 0.03421 0.44721 -0.89198 0.066152 0.029817 
-0.013272 0.022356 0.0305 0.37666 -0.92611 -0.02126 0.017007 
-0.0090458 0.022248 0.022597 0.28255 -0.95301 0.10925 0.010996 
-0.0023683 0.02168 0.014604 0.052723 -0.98979 0.13243 0.012284 
0.0019453 0.020306 0.0061417 -0.15611 -0.98401 0.085709 0.011607 
0.0063687 0.018954 -0.0013019 -0.31122 -0.94243 0.12234 0.0086026 
0.0096368 0.017312 -0.0074117 -0.50348 -0.84672 0.17198 0.011362 
0.011853 0.013927 -0.014646 -0.64474 -0.73901 0.19536 0.017934 
-0.0044409 0.022764 0.022645 0.094535 -0.99285 0.072928 0.016961 
-0.0060083 -0.035003 0.032312 0.18599 0.95831 0.21691 0.0086811 
-9.4352e-06 -0.035735 0.027796 0.024617 0.9722 0.23285 0.014878 
0.0057418 -0.032623 0.018973 -0.18103 0.95014 0.25388 0.0074339 
-0.0072818 -0.035884 0.03116 0.22237 0.95945 0.17323 0.010243 
-0.0015867 -0.035698 0.027465 0.024617 0.9722 0.23285 0.014878 
0.0040995 -0.033271 0.019405 -0.18103 0.95014 0.25388 0.0074339 
0.009577 -0.030069 0.012425 -0.34489 0.91522 0.20839 0.018241 
0.013068 -0.026589 0.0046212 -0.56512 0.8085 0.16423 0.01376 
0.01472 -0.023841 -0.0038584 -0.67032 0.72981 0.13434 0.01077 
0.00031036 -0.034637 0.022053 0.051831 0.96501 0.25703 0.0075753 
0.0070626 -0.03235 0.018 -0.26978 0.91927 0.28665 0.0090663 
0.01242 -0.028728 0.012342 -0.43466 0.86939 0.235 0.016298 
0.015707 -0.023776 0.0043601 -0.6438 0.74032 0.19351 0.014532 
0.018306 -0.01957 -0.0022504 -0.77464 0.6158 0.14397 0.0085577 
0.019299 -0.017604 -0.009837 -0.85155 0.50576 0.13808 0.019075 
0.019999 -0.016553 -0.017594 -0.86012 0.44319 0.25252 0.026261 
0.023149 -0.018651 0.01029 -0.81443 0.54054 0.211 0.015133 
0.022405 -0.016315 0.0035764 -0.90039 0.39433 0.18384 0.015323 
0.021714 -0.013835 -0.002923 -0.92633 0.32292 0.19397 0.020442 
0.021714 -0.011966 -0.0083298 -0.978 0.16804 0.12359 0.011622 
0.021123 -0.011279 -0.019587 -0.95087 0.21671 0.2211 0.020982 
0.025852 0.00070853 0.0096522 -0.95485 -0.20649 0.21359 0.014478 
0.024546 -0.0017915 0.0030422 -0.97188 -0.13688 0.19162 0.010013 
0.023166 -0.0044885 -0.0032602 -0.98102 -0.04143 0.18945 0.0097591 
0.02138 -0.0040275 -0.010591 -0.98466 -0.10504 0.13932 0.012819 
0.020871 -0.0038715 -0.017216 -0.9884 -0.060112 0.13945 0.0094627 
0.017795 0.014351 0.0091572 -0.70797 -0.68855 0.15712 0.010766 
0.021905 0.0057105 0.0026654 -0.8916 -0.40214 0.20816 0.0051698 
0.019913 0.0054675 -0.0041574 -0.88647 -0.42397 0.18552 0.0073443 
0.019279 0.0026635 -0.010027 -0.90743 -0.38795 0.16141 0.011068 
-0.0083505 0.022756 0.032196 0.222 -0.97306 -0.062214 0.026165 
-0.0022383 0.023051 0.026478 -0.064361 -0.99788 0.009354 0.01396 
0.0063132 0.02091 0.019513 -0.29465 -0.95252 0.076674 0.0044084 
0.011402 0.018486 0.011305 -0.45541 -0.88663 0.080511 0.011911 
0.016174 0.014404 0.0044972 -0.67077 -0.73049 0.1283 0.017726 
0.016862 0.01167 -0.0034676 -0.79528 -0.57767 0.18393 0.0063065 
0.016757 0.0090155 -0.0099651 -0.80877 -0.54868 0.21177 0.0094037 
-0.0070064 0.023471 0.032927 0.15024 -0.98463 -0.089064 0.030091 
-0.00077899 0.023002 0.027844 -0.064361 -0.99788 0.0093554 0.01396 
0.0029907 0.021621 0.020336 -0.1892 -0.98072 0.048805 0.0064406 
0.0085898 0.019269 0.012411 -0.35412 -0.93122 0.086215 0.0088041 
0.011829 0.017138 0.0056555 -0.55306 -0.82663 0.10397 0.01388 
0.012711 0.016329 -0.0025766 -0.5569 -0.81024 0.1827 0.016652 
0.0063779 -0.035465 0.031488 -0.25686 0.96406 0.067873 0.062661 
0.0077083 -0.035346 0.028524 -0.29497 0.94766 0.12222 0.06237 
0.0060669 -0.036551 0.031655 -0.25686 0.96406 0.067873 0.062661 
0.012428 -0.032926 0.02631 -0.44466 0.88578 0.1329 0.054611 
0.015621 -0.028621 0.018183 -0.54751 0.79393 0.26441 0.010955 
0.017438 -0.02476 0.0116 -0.67859 0.69736 0.23065 0.010335 
0.018643 -0.029988 0.025164 -0.59177 0.79007 0.15998 0.049445 
0.018913 -0.025047 0.017074 -0.65452 0.70888 0.26285 0.0077934 
0.020032 -0.020891 0.011655 -0.75281 0.61819 0.22609 0.01062 
0.021007 -0.017948 0.0037293 -0.8549 0.48668 0.1797 0.016031 
0.025461 -0.017043 0.017165 -0.88251 0.38535 0.26958 0.011482 
0.024165 -0.013331 0.0092266 -0.92501 0.3007 0.23225 0.016876 
0.023557 -0.01226 0.0028024 -0.93844 0.29494 0.17986 0.016075 
0.022691 -0.010154 -0.004802 -0.9838 0.091834 0.15396 0.01382 
0.028419 0.0012195 0.025434 -0.96212 -0.27186 -0.020302 0.020514 
0.026906 0.0020195 0.016235 -0.94047 -0.25454 0.22521 0.0076735 
0.025978 -0.0037035 0.0094212 -0.96633 -0.1224 0.22632 0.011957 
0.023648 -0.0041415 0.0024835 -0.97502 -0.04773 0.21693 0.01042 
0.022173 -0.0040915 -0.0049024 -0.98187 -0.070417 0.17598 0.01236 
0.020539 0.015096 0.022924 -0.72807 -0.68182 0.070934 0.013019 
0.024226 0.0077965 0.01679 -0.87425 -0.44879 0.18512 0.0055691 
0.023021 0.0052625 0.010094 -0.8746 -0.42996 0.22409 0.012865 
0.022273 0.0040065 0.0045892 -0.90383 -0.3726 0.21038 0.0060421 
0.007226 0.020251 0.03422 -0.34442 -0.91736 -0.19956 0.019129 
0.013796 0.018514 0.026072 -0.49927 -0.86388 -0.066644 0.020935 
0.018274 0.015016 0.018457 -0.61712 -0.77418 0.14073 0.011725 
0.020357 0.011015 0.011336 -0.77189 -0.59964 0.21122 0.01128 
0.020301 0.0088895 0.0056613 -0.84156 -0.49294 0.22088 0.010868 
-0.00087138 0.020813 0.036043 -0.11208 -0.98351 -0.14195 0.020079 
0.0045758 0.022252 0.031064 -0.24578 -0.96562 -0.084709 0.011175 
0.010442 0.020473 0.026823 -0.35295 -0.93471 -0.0418 0.0091362 
0.013362 0.018036 0.019103 -0.51497 -0.85306 0.084202 0.010051 
0.015058 0.015883 0.011193 -0.56844 -0.80991 0.14465 0.016761 
0.016157 -0.031356 0.029162 -0.53129 0.83819 0.12313 0.050022 
0.018284 -0.030842 0.030403 -0.57921 0.79623 0.17475 0.049049 
0.020704 -0.027251 0.025682 -0.67324 0.71757 0.17843 0.050391 
0.01326 -0.020603 0.030629 -0.69897 0.7138 -0.043938 0.053003 
0.02363 -0.024566 0.031656 -0.79705 0.59912 0.076012 0.06115 
0.024398 -0.022378 0.024949 -0.811 0.57984 0.07791 0.06385 
0.024061 -0.018241 0.017167 -0.83175 0.50225 0.23651 0.0083042 
0.029588 -0.013575 0.030605 -0.98405 0.17789 -0.0027353 0.026996 
0.028303 -0.013308 0.024012 -0.98316 0.16757 0.072876 0.026297 
0.026332 -0.012327 0.015643 -0.94517 0.23521 0.22657 0.0066195 
0.025831 -0.010133 0.01307 -0.95403 0.15383 0.25723 0.010144 
0.017356 -0.0016165 0.033456 -0.8005 -0.24974 -0.54482 0.033519 
0.027964 0.00022153 0.030989 -0.82059 -0.1992 -0.53568 0.035052 
0.028614 -0.0037455 0.022246 -0.98944 -0.089713 0.11387 0.016971 
0.026966 -0.0039315 0.015093 -0.97451 -0.067229 0.21405 0.0078943 
0.025521 -0.0049765 0.010154 -0.97162 -0.0030669 0.23651 0.011438 
0.01761 0.0084765 0.03698 -0.64882 -0.50469 -0.56949 0.034008 
0.024857 0.0078995 0.031175 -0.783 -0.43634 -0.4433 0.044725 
0.026452 0.0057435 0.025311 -0.90053 -0.43479 -0.0011687 0.01043 
0.025138 0.0031625 0.015262 -0.91882 -0.334 0.21025 0.0046862 
0.024314 0.0011215 0.010687 -0.95849 -0.17893 0.222 0.015826 
0.013564 0.014988 0.036576 -0.55976 -0.69212 -0.45568 0.053228 
0.019443 0.014816 0.02961 -0.66992 -0.70933 -0.21922 0.017478 
0.02193 0.0125 0.025476 -0.7426 -0.65454 -0.14185 0.021348 
0.022646 0.010127 0.015608 -0.79428 -0.57173 0.20554 0.0086306 
0.0097398 0.018845 0.033703 -0.40128 -0.89717 -0.18458 0.018244 
0.015595 0.017212 0.029066 -0.55904 -0.80849 -0.1839 0.024188 
0.018923 0.015936 0.0248 -0.65976 -0.74784 -0.073808 0.021564 
0.025861 -0.023417 0.029204 -0.811 0.57984 0.077911 0.063851 
0.023759 -0.022526 0.032151 -0.80387 0.59263 0.050796 0.062273 
0.026908 -0.019965 0.028588 -0.85295 0.5164 0.076199 0.067783 
0.027535 -0.016979 0.024211 -0.91803 0.35283 0.1809 0.01685 
0.026857 -0.013267 0.03362 -0.60605 0.055816 -0.79347 0.069729 
0.028763 -0.01239 0.027765 -0.98898 0.1466 0.020877 0.026263 
0.028927 -0.011887 0.024815 -0.98742 0.1254 0.096342 0.02319 
0.024909 -0.0042355 0.033012 -0.83409 -0.15851 -0.52836 0.039023 
0.02838 -0.0036585 0.027778 -0.9387 -0.15952 -0.30562 0.057265 
0.029213 -0.0047095 0.024992 -0.99771 -0.063826 0.022349 0.01809 
0.024012 0.0045035 0.034189 -0.78277 -0.3311 -0.52692 0.036706 
0.026936 0.0032005 0.027422 -0.91039 -0.3444 -0.2293 0.065866 
0.028228 0.00093953 0.024717 -0.96212 -0.27186 -0.020305 0.020511 
0.024051 0.0095505 0.026151 -0.82976 -0.55116 -0.087886 0.022165 
0.025645 0.0078325 0.024034 -0.88573 -0.46388 0.017079 0.011792 
0.029619 -0.0067675 0.027519 -0.99713 -0.051443 -0.055478 0.023175 
3 0 19 58
3 24 19 58
3 3 24 58
3 25 3 58
3 1 25 58
3 20 1 58
3 20 0 58
3 20 0 19
3 50 20 19
3 57 50 19
3 57 24 19
3 18 57 24
3 56 18 24
3 23 56 24
3 2 23 24
3 28 2 24
3 64 28 24
3 29 64 24
3 29 3 24
3 34 29 3
3 6 34 3
3 11 6 3
3 30 11 3
3 4 30 3
3 4 25 3
3 4 25 1
3 26 4 1
3 59 26 1
3 21 59 1
3 15 21 1
3 15 20 1
3 51 15 20
3 51 50 20
3 45 51 50
3 95 45 50
3 44 95 50
3 43 44 50
3 103 43 50
3 14 103 50
3 14 57 50
3 103 14 57
3 49 103 57
3 49 18 57
3 17 49 18
3 17 56 18
3 102 17 56
3 55 102 56
3 22 55 56
3 22 23 56
3 63 22 23
3 63 2 23
3 63 28 2
3 27 63 28
3 32 27 28
3 68 32 28
3 33 68 28
3 34 33 28
3 34 29 9
3 9 34 28
3 5 9 28
3 5 64 28
3 29 5 64
3 5 9 29
3 69 33 34
3 38 69 34
3 12 38 34
3 65 12 34
3 10 65 34
3 10 6 34
3 65 10 6
3 65 11 6
3 12 65 11
3 35 12 11
3 70 35 11
3 39 70 11
3 13 39 11
3 36 13 11
3 31 36 11
3 8 31 11
3 7 8 11
3 7 30 11
3 4 7 30
3 26 7 4
3 31 7 26
3 31 8 7
3 46 97 59
3 52 46 59
3 16 52 59
3 45 16 59
3 45 51 15
3 15 45 59
3 15 21 59
3 46 16 45
3 46 52 16
3 87 46 45
3 87 95 45
3 86 87 95
3 85 95 44
3 94 85 44
3 94 43 44
3 43 49 103
3 93 43 49
3 42 93 49
3 48 42 49
3 102 48 49
3 102 17 49
3 101 48 102
3 101 55 102
3 47 101 55
3 100 47 55
3 54 100 55
3 61 54 55
3 107 61 55
3 62 107 55
3 108 62 55
3 108 22 55
3 67 108 22
3 67 63 22
3 27 67 63
3 67 32 27
3 72 67 32
3 114 72 32
3 114 68 32
3 122 114 68
3 73 122 68
3 115 73 68
3 74 115 68
3 74 33 68
3 74 69 33
3 75 74 69
3 41 75 69
3 41 38 69
3 39 41 38
3 39 70 35
3 35 39 38
3 35 12 38
3 71 41 39
3 71 13 39
3 71 36 13
3 37 71 36
3 37 31 36
3 142 88 97
3 96 142 97
3 96 46 97
3 96 87 46
3 139 95 85
3 84 139 85
3 84 94 85
3 93 84 94
3 93 43 94
3 146 84 93
3 83 146 93
3 92 83 93
3 92 42 93
3 92 48 42
3 47 92 48
3 47 101 48
3 91 92 47
3 155 91 47
3 155 100 47
3 91 155 100
3 154 91 100
3 153 154 100
3 99 153 100
3 53 99 100
3 60 53 100
3 106 60 100
3 162 106 100
3 162 54 100
3 162 61 54
3 66 162 61
3 66 107 61
3 62 66 107
3 62 67 108
3 113 62 67
3 113 72 67
3 121 113 72
3 170 121 72
3 122 170 72
3 122 114 72
3 128 170 122
3 177 128 122
3 129 177 122
3 115 129 122
3 115 73 122
3 123 129 115
3 78 123 115
3 78 74 115
3 78 75 74
3 124 78 75
3 79 124 75
3 76 79 75
3 76 41 75
3 76 71 41
3 77 76 71
3 77 37 71
3 96 88 142
3 147 95 139
3 138 139 84
3 138 146 84
3 197 138 146
3 192 197 146
3 134 192 146
3 137 134 146
3 145 137 146
3 145 83 146
3 82 145 83
3 82 92 83
3 82 91 92
3 136 82 91
3 144 136 91
3 90 144 91
3 90 154 91
3 90 153 154
3 143 90 153
3 89 143 153
3 152 89 153
3 98 152 153
3 104 98 153
3 160 104 153
3 105 160 153
3 105 99 153
3 161 105 99
3 161 53 99
3 161 60 53
3 112 161 60
3 112 106 60
3 66 112 106
3 66 162 106
3 169 112 66
3 169 66 113
3 176 169 113
3 176 121 113
3 176 170 121
3 176 128 170
3 228 176 128
3 185 228 128
3 186 185 128
3 186 177 128
3 178 186 177
3 178 129 177
3 130 178 129
3 130 123 129
3 130 123 78
3 130 124 78
3 131 130 124
3 131 124 79
3 132 131 79
3 80 132 79
3 80 76 79
3 116 77 76
3 81 116 77
3 139 197 138
3 198 139 197
3 249 198 197
3 253 249 197
3 253 192 197
3 196 253 192
3 196 134 192
3 204 196 134
3 204 137 134
3 204 145 137
3 136 204 145
3 136 82 145
3 195 204 136
3 203 195 136
3 135 203 136
3 135 144 136
3 143 135 144
3 143 90 144
3 195 135 143
3 195 203 135
3 202 195 143
3 202 143 89
3 159 160 104
3 110 159 160
3 167 110 160
3 119 167 160
3 111 119 160
3 111 105 160
3 111 161 105
3 111 112 161
3 119 111 112
3 168 119 112
3 175 168 112
3 120 175 112
3 120 169 112
3 175 120 169
3 175 176 169
3 184 175 176
3 184 228 176
3 243 237 228
3 243 185 228
3 238 243 185
3 229 238 185
3 229 186 185
3 187 229 186
3 187 178 186
3 178 131 130
3 125 80 132
3 126 133 81
3 126 77 81
3 205 139 198
3 246 198 249
3 246 249 253
3 290 246 253
3 288 290 253
3 245 288 253
3 248 245 253
3 247 248 253
3 191 247 253
3 191 196 253
3 195 191 196
3 195 204 196
3 247 191 195
3 244 247 195
3 194 244 195
3 194 202 195
3 166 110 159
3 166 167 110
3 219 166 167
3 174 219 167
3 174 119 167
3 220 174 119
3 183 220 119
3 183 168 119
3 183 175 168
3 227 183 175
3 227 184 175
3 236 227 184
3 236 228 184
3 236 228 237
3 275 236 237
3 275 243 237
3 316 275 243
3 283 316 243
3 283 238 243
3 77 133 126
3 254 198 246
3 254 290 246
3 250 254 290
3 255 250 290
3 291 255 290
3 294 291 290
3 293 294 290
3 323 293 290
3 320 323 290
3 287 320 290
3 287 288 290
3 287 245 288
3 248 244 247
3 226 174 219
3 226 220 174
3 226 183 220
3 235 226 183
3 235 227 183
3 235 236 227
3 274 235 236
3 274 275 236
3 282 274 275
3 282 316 275
3 274 282 316
3 315 274 316
3 310 315 316
3 345 310 316
3 346 345 316
3 317 346 316
3 276 317 316
3 276 283 316
3 284 276 283
3 284 238 283
3 250 198 254
3 251 198 250
3 251 255 250
3 292 251 255
3 294 292 255
3 294 291 255
3 295 292 294
3 260 295 294
3 326 260 294
3 351 326 294
3 325 351 294
3 322 325 294
3 322 293 294
3 324 322 293
3 324 323 293
3 349 324 323
3 321 289 323
3 321 320 323
3 289 323 287
3 289 245 287
3 341 310 315
3 341 345 310
3 341 346 345
3 342 341 346
3 343 342 346
3 347 343 346
3 312 347 346
3 318 312 346
3 311 318 346
3 311 317 346
3 318 311 317
3 318 276 317
3 277 318 276
3 277 284 276
3 285 277 284
3 230 285 284
3 230 238 284
3 199 198 251
3 206 199 251
3 252 206 251
3 257 252 251
3 256 257 251
3 295 256 251
3 295 292 251
3 296 256 295
3 261 296 295
3 261 260 295
3 299 261 260
3 298 299 260
3 330 298 260
3 329 330 260
3 297 329 260
3 297 326 260
3 297 351 326
3 329 297 351
3 328 329 351
3 354 328 351
3 363 354 351
3 353 363 351
3 327 353 351
3 350 327 351
3 348 350 351
3 348 325 351
3 349 348 325
3 349 324 322
3 349 322 325
3 350 348 349
3 289 320 321
3 358 336 341
3 337 358 341
3 361 337 341
3 361 342 341
3 361 343 342
3 338 361 343
3 362 338 343
3 307 362 343
3 344 307 343
3 312 344 343
3 312 347 306
3 306 312 343
3 306 347 343
3 308 344 312
3 313 308 312
3 270 313 312
3 319 270 312
3 277 319 312
3 277 318 312
3 270 319 277
3 278 270 277
3 278 285 277
3 279 278 285
3 221 279 285
3 286 221 285
3 231 286 285
3 240 231 285
3 240 230 285
3 239 240 230
3 239 238 230
3 193 206 199
3 149 193 206
3 200 149 206
3 207 200 206
3 207 252 206
3 208 207 252
3 258 208 252
3 263 258 252
3 210 263 252
3 210 257 252
3 262 210 257
3 299 262 257
3 261 299 257
3 296 261 257
3 296 256 257
3 263 262 299
3 263 210 262
3 300 263 299
3 267 300 299
3 304 267 299
3 335 304 299
3 330 335 299
3 330 298 299
3 334 335 330
3 334 329 330
3 354 334 329
3 354 328 329
3 334 363 354
3 357 334 363
3 356 357 363
3 332 356 363
3 355 332 363
3 355 353 363
3 355 327 353
3 331 358 336
3 332 331 358
3 332 356 301
3 301 332 358
3 359 301 358
3 338 359 358
3 361 338 358
3 361 337 358
3 301 359 338
3 301 338 362
3 301 307 362
3 302 301 307
3 339 302 307
3 340 339 307
3 308 340 307
3 308 344 307
3 265 340 308
3 266 265 308
3 309 266 308
3 271 309 308
3 314 271 308
3 278 314 308
3 270 278 308
3 270 313 308
3 271 314 278
3 272 271 278
3 272 279 278
3 280 272 279
3 232 280 279
3 241 232 279
3 241 221 279
3 231 241 221
3 231 286 221
3 241 240 231
3 179 241 240
3 179 239 240
3 141 193 149
3 201 200 149
3 208 201 200
3 208 207 200
3 150 201 208
3 151 150 208
3 209 151 208
3 158 209 208
3 157 158 208
3 156 157 208
3 259 156 208
3 211 259 208
3 211 258 208
3 211 263 258
3 212 211 263
3 264 212 263
3 269 264 263
3 268 269 263
3 305 268 263
3 267 305 263
3 267 300 263
3 305 267 304
3 266 305 304
3 266 265 335
3 266 335 304
3 265 334 335
3 340 265 334
3 339 340 334
3 302 339 334
3 360 302 334
3 356 360 334
3 356 301 360
3 333 356 334
3 333 357 334
3 357 333 356
3 331 355 332
3 352 327 355
3 302 360 301
3 305 309 266
3 271 305 309
3 272 305 271
3 214 305 272
3 215 214 272
3 273 215 272
3 223 273 272
3 222 223 272
3 222 280 272
3 233 222 280
3 233 232 280
3 171 233 232
3 242 171 232
3 180 242 232
3 189 180 232
3 189 241 232
3 189 179 241
3 188 189 179
3 188 239 179
3 158 209 151
3 164 218 158
3 217 164 158
3 163 217 158
3 216 163 158
3 264 216 158
3 264 269 216
3 213 264 158
3 213 157 158
3 213 156 157
3 212 211 259
3 212 259 156
3 163 269 268
3 163 216 269
3 223 163 268
3 273 223 268
3 215 273 268
3 214 215 268
3 214 305 268
3 164 163 223
3 164 217 163
3 224 164 223
3 109 224 223
3 234 109 223
3 172 234 223
3 181 172 223
3 171 181 223
3 233 171 223
3 233 222 223
3 190 181 171
3 180 190 171
3 180 242 171
3 190 189 180
3 165 164 218
3 225 165 164
3 225 224 164
3 264 156 213
3 109 225 224
3 165 225 109
3 182 118 109
3 181 182 109
3 172 181 109
3 172 234 109
3 118 182 181
3 117 118 181
3 117 190 181
3 173 109 165
3 127 117 118
3 127 190 117
