ply
format ascii 1.0
comment PCL generated
element vertex 364
property float x
property float y
property float z
property float nx
property float ny
property float nz
property float curvature
element face 650
property list uchar int vertex_indices
end_header
0.87971 -0.079994 0.028792 -0.22309 -0.5973 -0.77036 0.022522 
0.88614 -0.078411 0.025626 -0.1354 0.3438 0.92923 0.027467 
0.87096 -0.070795 0.028797 -0.47476 -0.20584 -0.8557 0.0070841 
0.87873 -0.070785 0.024972 -0.31339 -0.16654 -0.93491 0.0067634 
0.88592 -0.073308 0.024593 -0.060641 0.2358 0.96991 0.022558 
0.87173 -0.063657 0.028085 -0.51544 0.1226 -0.84811 0.010707 
0.8793 -0.064904 0.024198 -0.24977 0.023554 -0.96802 0.012539 
0.88587 -0.064432 0.023182 0.024708 0.055623 -0.99815 0.022376 
0.8898 -0.065123 0.025495 -0.2608 -0.047945 0.9642 0.03269 
0.8735 -0.061794 0.027053 -0.422 0.19758 -0.88481 0.011805 
0.87855 -0.059575 0.025173 -0.26386 0.28393 -0.92183 0.01828 
0.88674 -0.058683 0.024632 -0.11242 -0.35514 0.92803 0.03501 
0.87742 -0.054802 0.027642 -0.32935 0.47189 -0.81783 0.01488 
0.88787 -0.05389 0.025547 -0.16433 -0.44238 0.88164 0.03475 
0.87014 -0.083125 0.035838 -0.37269 -0.68162 -0.62968 0.029555 
0.8888 -0.085859 0.031456 0.024646 0.81599 0.57754 0.046836 
0.89428 -0.084441 0.03051 -0.15188 0.81744 0.55563 0.050794 
0.86377 -0.078354 0.036156 -0.45242 -0.47342 -0.75577 0.01749 
0.86927 -0.078643 0.03225 -0.41975 -0.52695 -0.73901 0.011449 
0.87735 -0.08095 0.029722 -0.27499 -0.61084 -0.74247 0.015471 
0.88498 -0.082177 0.028478 -0.051088 -0.61894 -0.78377 0.026446 
0.89387 -0.083193 0.028259 -0.25671 0.67666 0.69009 0.077939 
0.86345 -0.071249 0.034506 -0.5818 -0.13824 -0.8015 0.010361 
0.8679 -0.07235 0.030779 -0.5128 -0.20713 -0.83315 0.0061456 
0.877 -0.075507 0.026673 -0.36411 -0.30466 -0.88012 0.0088392 
0.8849 -0.075136 0.024979 -0.036131 0.32558 0.94482 0.026981 
0.89188 -0.074576 0.02727 -0.13544 0.34379 0.92923 0.027465 
0.86135 -0.063882 0.035744 -0.57555 0.14311 -0.80515 0.0074569 
0.86808 -0.064617 0.03045 -0.56175 0.12223 -0.81823 0.0084223 
0.87419 -0.065414 0.026282 -0.4384 0.0566 -0.897 0.013722 
0.88485 -0.065047 0.023275 0.005002 0.042695 -0.99908 0.024163 
0.89227 -0.066074 0.027349 -0.3877 3.0959e-05 0.92178 0.026948 
0.86221 -0.058825 0.037405 -0.53204 0.37303 -0.76012 0.0099489 
0.86999 -0.057297 0.031431 -0.5192 0.42271 -0.7428 0.0065046 
0.87611 -0.057199 0.027478 -0.32555 0.36163 -0.87364 0.0097934 
0.88504 -0.05543 0.025339 -0.15787 -0.38419 0.90966 0.031402 
0.89325 -0.056575 0.028774 -0.45527 -0.37374 0.80811 0.02174 
0.89578 -0.056435 0.032034 -0.40894 -0.438 0.80058 0.027725 
0.87867 -0.050935 0.03074 -0.29369 0.66764 -0.68411 0.011578 
0.88639 -0.049475 0.029705 0.032128 0.67171 -0.74011 0.030739 
0.89382 -0.049701 0.03028 -0.27125 -0.74204 0.61302 0.03139 
0.886 -0.047321 0.032944 0.05309 0.80103 -0.59627 0.034348 
0.86146 -0.08378 0.042141 -0.40664 -0.71054 -0.57427 0.01223 
0.87082 -0.085675 0.039104 -0.245 -0.80921 -0.53399 0.018728 
0.87444 -0.086349 0.039966 -0.17388 -0.85903 -0.48149 0.015765 
0.88532 -0.087297 0.037374 0.048378 0.91596 0.39835 0.022437 
0.89512 -0.087818 0.036928 -0.17653 0.91093 0.37289 0.047946 
0.85034 -0.077828 0.045737 -0.48776 -0.41323 -0.76898 0.021583 
0.85916 -0.080523 0.040736 -0.47778 -0.57299 -0.66588 0.013404 
0.86652 -0.083682 0.03801 -0.38976 -0.68007 -0.62096 0.031501 
0.87456 -0.08505 0.034784 -0.24708 -0.80248 -0.54312 0.018629 
0.88527 -0.086018 0.03346 -0.089852 -0.80387 -0.58798 0.040558 
0.89358 -0.085543 0.035039 -0.089416 0.8686 0.48737 0.047689 
0.84267 -0.071754 0.047783 -0.40255 -0.12078 -0.90739 0.011603 
0.85115 -0.071405 0.043152 -0.52599 -0.15761 -0.83576 0.013585 
0.85731 -0.074219 0.038501 -0.54033 -0.23333 -0.80846 0.0086958 
0.86482 -0.076045 0.034011 -0.526 -0.32063 -0.78773 0.017081 
0.87259 -0.078508 0.030401 -0.40477 -0.51341 -0.75669 0.01199 
0.88207 -0.078593 0.027603 -0.14695 -0.55223 -0.82064 0.027131 
0.8941 -0.079059 0.031526 -0.38815 0.51505 0.76424 0.067618 
0.84353 -0.064968 0.046757 -0.49442 0.072781 -0.86617 0.024917 
0.84994 -0.065328 0.04342 -0.51316 0.051737 -0.85673 0.015308 
0.85599 -0.065037 0.039143 -0.529 0.18287 -0.82868 0.013447 
0.86295 -0.065411 0.033474 -0.59498 0.053551 -0.80196 0.0099957 
0.87151 -0.064574 0.027925 -0.51596 0.12258 -0.8478 0.010527 
0.88139 -0.059106 0.025538 -0.14746 0.28742 -0.94639 0.024404 
0.85145 -0.059346 0.044589 -0.50197 0.36008 -0.78636 0.0088161 
0.85982 -0.058206 0.039522 -0.53688 0.35885 -0.76353 0.0073484 
0.86509 -0.055416 0.036136 -0.5037 0.47717 -0.72014 0.0084163 
0.87259 -0.052889 0.03212 -0.45172 0.51649 -0.72745 0.011224 
0.88357 -0.050504 0.030033 -0.088289 0.7044 -0.70429 0.021521 
0.89355 -0.052129 0.032424 -0.34895 -0.61162 0.71003 0.046018 
0.8603 -0.051793 0.042913 -0.44232 0.55708 -0.70286 0.013377 
0.86805 -0.049634 0.038962 -0.40614 0.69204 -0.59677 0.0092232 
0.87557 -0.047084 0.037709 -0.27059 0.8145 -0.5132 0.011951 
0.88521 -0.045673 0.035976 -0.02235 0.90381 -0.42734 0.013443 
0.8946 -0.047128 0.036445 -0.26138 -0.8286 0.49508 0.03252 
0.90006 -0.05007 0.038078 -0.47944 -0.72284 0.49764 0.031684 
0.87671 -0.045877 0.039589 -0.27208 0.81412 -0.51302 0.011723 
0.88698 -0.044125 0.039352 0.053226 0.91638 -0.39676 0.017357 
0.89336 -0.045415 0.03719 -0.26264 -0.82824 0.49501 0.032477 
0.90033 -0.047149 0.038056 -0.47946 -0.72283 0.49763 0.031658 
0.84926 -0.085928 0.051979 -0.2642 -0.67709 -0.68684 0.0096024 
0.85697 -0.08769 0.050696 -0.27214 -0.75779 -0.59303 0.014868 
0.86676 -0.088804 0.048094 -0.17121 -0.89924 -0.40255 0.014595 
0.87515 -0.089002 0.047068 0.065161 0.95366 0.29374 0.0071105 
0.88478 -0.088009 0.04539 -0.013159 0.98768 0.15592 0.0067411 
0.89423 -0.08887 0.045483 -0.22604 0.96472 0.13498 0.021927 
0.90182 -0.087236 0.045659 -0.48475 0.86772 0.1099 0.042953 
0.83125 -0.081617 0.05525 -0.32923 -0.50422 -0.79835 0.013138 
0.84005 -0.078296 0.051324 -0.30685 -0.44922 -0.83907 0.02446 
0.84892 -0.082467 0.049448 -0.40535 -0.594 -0.69488 0.014655 
0.85485 -0.083516 0.046682 -0.38631 -0.64388 -0.66044 0.017382 
0.86387 -0.087365 0.044268 -0.32946 -0.8046 -0.49404 0.014739 
0.87399 -0.088055 0.043942 -0.085618 -0.95928 -0.26917 0.0071222 
0.88443 -0.087677 0.04357 -0.022679 0.98351 0.17942 0.0066688 
0.8947 -0.087591 0.046305 -0.24883 0.96603 0.069836 0.015355 
0.90008 -0.084791 0.044595 -0.36506 0.92161 0.13179 0.026224 
0.83029 -0.072685 0.051884 -0.3343 -0.080295 -0.93904 0.028714 
0.83896 -0.073486 0.049703 -0.37293 -0.16481 -0.9131 0.016255 
0.84674 -0.074471 0.046111 -0.48838 -0.24021 -0.83892 0.01457 
0.8539 -0.076444 0.042105 -0.53877 -0.24361 -0.80646 0.0099043 
0.86122 -0.079069 0.037945 -0.51223 -0.42875 -0.74417 0.009455 
0.86948 -0.084013 0.037423 -0.3319 -0.73398 -0.59255 0.020308 
0.82708 -0.065415 0.050304 -0.2531 0.0876 -0.96347 0.033618 
0.83904 -0.06409 0.048983 -0.32639 0.18433 -0.92709 0.02614 
0.84674 -0.064715 0.045374 -0.43632 0.025075 -0.89944 0.015649 
0.85283 -0.064918 0.040979 -0.54279 0.10675 -0.83306 0.011894 
0.859 -0.064182 0.037117 -0.54613 0.1924 -0.81531 0.011105 
0.90377 -0.061751 0.049985 -0.84503 -0.45298 -0.28414 0.077478 
0.82972 -0.058276 0.053187 -0.2941 0.33916 -0.89358 0.031651 
0.83766 -0.06024 0.051455 -0.28368 0.3058 -0.90885 0.02495 
0.84709 -0.056825 0.048235 -0.42604 0.43088 -0.79551 0.0044497 
0.85441 -0.054513 0.044746 -0.49953 0.45376 -0.73795 0.0075964 
0.86173 -0.052324 0.040239 -0.49997 0.53042 -0.6846 0.010873 
0.87175 -0.048205 0.039628 -0.32849 0.75879 -0.56244 0.013287 
0.89839 -0.05039 0.039561 -0.47944 -0.72284 0.49764 0.031684 
0.90823 -0.051622 0.047242 -0.72548 -0.68787 -0.022615 0.065102 
0.90904 -0.057559 0.044563 -0.88694 -0.42189 0.188 0.051919 
0.83934 -0.053245 0.054262 -0.26119 0.52791 -0.80814 0.013782 
0.84903 -0.050045 0.051706 -0.33653 0.61519 -0.71295 0.0092781 
0.85699 -0.048006 0.048557 -0.38248 0.68553 -0.61948 0.012186 
0.86644 -0.045566 0.045748 -0.28191 0.82867 -0.48356 0.015352 
0.87528 -0.043576 0.044784 -0.11882 0.92637 -0.35738 0.01073 
0.88528 -0.043604 0.044893 0.030342 0.9809 -0.19215 0.011934 
0.89418 -0.044734 0.045676 -0.28041 -0.95548 0.091821 0.01504 
0.90376 -0.047543 0.043929 -0.53672 -0.84288 0.038433 0.026302 
0.90812 -0.051466 0.046075 -0.72849 -0.68477 -0.019847 0.064105 
0.85877 -0.044085 0.052014 -0.24477 0.84198 -0.48079 0.017256 
0.86896 -0.044014 0.04736 -0.20805 0.87067 -0.44569 0.0091917 
0.87573 -0.043381 0.046229 -0.11938 0.94572 -0.30227 0.006938 
0.8851 -0.042836 0.046291 -0.075607 -0.97977 0.18527 0.0076704 
0.89352 -0.043866 0.045342 -0.24687 -0.9567 0.15423 0.013921 
0.90083 -0.046063 0.045774 -0.51391 -0.85723 0.03243 0.025583 
0.85526 -0.091368 0.059255 -0.071245 -0.88653 -0.45715 0.010776 
0.83958 -0.087596 0.058919 -0.24537 -0.67772 -0.69317 0.014263 
0.84603 -0.089799 0.0588 -0.21672 -0.77291 -0.59636 0.015576 
0.85546 -0.090344 0.057032 -0.13479 -0.88688 -0.4419 0.012817 
0.86559 -0.091394 0.057131 0.023455 0.95566 0.29353 0.010953 
0.87497 -0.090635 0.055282 -0.084189 0.98281 0.16428 0.0050038 
0.88386 -0.090064 0.05499 -0.17158 0.98517 0.00082305 0.013546 
0.89386 -0.088065 0.054105 -0.3014 0.95072 -0.072696 0.016104 
0.90113 -0.085686 0.053687 -0.60163 0.75947 -0.2475 0.025344 
0.83603 -0.084738 0.056159 -0.29514 -0.59618 -0.74663 0.011048 
0.84417 -0.086603 0.055512 -0.25216 -0.70533 -0.66252 0.0082137 
0.85411 -0.088518 0.05279 -0.26011 -0.79318 -0.55064 0.013393 
0.8643 -0.089914 0.052599 -0.089144 -0.94692 -0.30887 0.0095989 
0.87574 -0.090048 0.056072 -0.098978 0.98399 0.1482 0.006469 
0.88424 -0.089438 0.053259 -0.15596 0.98697 0.039634 0.010279 
0.89409 -0.086873 0.056246 -0.3274 0.93637 -0.12658 0.012936 
0.90372 -0.083797 0.055507 -0.62745 0.73125 -0.26755 0.02591 
0.9066 -0.080215 0.054524 -0.67743 0.67724 -0.28712 0.022543 
0.8285 -0.075384 0.05205 -0.32464 -0.29935 -0.89722 0.034618 
0.83346 -0.075948 0.051627 -0.3019 -0.29098 -0.90785 0.02859 
0.84182 -0.077575 0.049084 -0.36108 -0.38985 -0.84714 0.020829 
0.84869 -0.079069 0.046156 -0.46858 -0.4155 -0.77961 0.020174 
0.90593 -0.073915 0.062974 -0.73437 0.28977 -0.61379 0.023512 
0.90681 -0.075369 0.060159 -0.75229 0.39019 -0.53086 0.027864 
0.90862 -0.073 0.055607 -0.92904 0.17663 -0.32508 0.077695 
0.82645 -0.062997 0.051241 -0.25618 0.17073 -0.95143 0.036947 
0.83358 -0.064191 0.049927 -0.24992 0.11893 -0.96093 0.026312 
0.84102 -0.063382 0.047995 -0.44811 0.1388 -0.88313 0.020161 
0.84932 -0.062015 0.043759 -0.50767 0.26303 -0.82042 0.01557 
0.90684 -0.062437 0.063474 -0.69448 -0.20523 -0.68962 0.010903 
0.90927 -0.06146 0.058721 -0.82762 -0.16307 -0.53709 0.080593 
0.91434 -0.064261 0.055541 -0.95031 -0.078544 -0.30124 0.081385 
0.82613 -0.055692 0.054044 -0.294 0.33917 -0.8936 0.031678 
0.83454 -0.054468 0.054603 -0.22363 0.51844 -0.82535 0.0094571 
0.84327 -0.0523 0.05255 -0.3625 0.52209 -0.77202 0.010723 
0.85157 -0.051532 0.048426 -0.46783 0.49864 -0.72972 0.0086205 
0.8589 -0.046752 0.048296 -0.39783 0.68304 -0.61253 0.011816 
0.89989 -0.049895 0.058513 -0.57326 -0.69856 -0.42824 0.010807 
0.90721 -0.052926 0.055421 -0.7152 -0.62183 -0.31909 0.053093 
0.9116 -0.057115 0.053796 -0.75239 -0.53172 -0.38882 0.059407 
0.83757 -0.04863 0.05759 -0.26553 0.64264 -0.71868 0.0167 
0.84586 -0.046192 0.056932 -0.29196 0.7195 -0.63014 0.0076339 
0.85494 -0.044197 0.054537 -0.25677 0.80668 -0.5323 0.013308 
0.86398 -0.042505 0.053237 -0.1705 0.90799 -0.38274 0.019324 
0.87494 -0.041767 0.05458 0.0045963 0.98817 -0.1533 0.007054 
0.88449 -0.042224 0.055497 -0.18964 -0.98184 -0.0045267 0.0094385 
0.89556 -0.044934 0.055128 -0.36716 -0.90204 -0.22696 0.01959 
0.90167 -0.04852 0.05385 -0.54169 -0.78921 -0.28934 0.01401 
0.90855 -0.052698 0.0516 -0.72291 -0.62412 -0.29644 0.052806 
0.84271 -0.043257 0.06213 -0.27491 0.79869 -0.53528 0.01246 
0.84686 -0.044087 0.059315 -0.26684 0.78871 -0.55383 0.0094371 
0.8577 -0.040894 0.058638 -0.16004 0.8888 -0.42946 0.015292 
0.86596 -0.0413 0.056299 -0.06741 0.95749 -0.28047 0.011506 
0.87547 -0.04077 0.056471 -0.060091 -0.9948 0.082247 0.010637 
0.88433 -0.041809 0.055036 -0.18936 -0.9819 -0.0044971 0.0094542 
0.89253 -0.044406 0.053835 -0.34469 -0.93127 -0.11801 0.010616 
0.89797 -0.045228 0.050799 -0.42273 -0.90348 -0.070829 0.021019 
0.8476 -0.095913 0.068759 0.055248 0.94208 0.33079 0.014227 
0.86128 -0.093462 0.065427 -0.14994 0.95167 0.26804 0.0070321 
0.88396 -0.090089 0.06282 -0.29944 0.93997 -0.1637 0.014695 
0.83744 -0.093578 0.063854 -0.19423 -0.8391 -0.50811 0.019491 
0.84539 -0.094123 0.065027 -0.10093 -0.89546 -0.43354 0.011493 
0.85511 -0.094728 0.065319 -0.055873 0.94139 0.33265 0.0073191 
0.8645 -0.093178 0.06598 -0.15078 0.9712 0.18448 0.010799 
0.8738 -0.09156 0.065227 -0.23609 0.97102 0.037087 0.014475 
0.88293 -0.090347 0.063313 -0.29996 0.93979 -0.16374 0.014602 
0.89128 -0.087169 0.062503 -0.40287 0.85089 -0.33718 0.014387 
0.89921 -0.085149 0.059596 -0.53102 0.77211 -0.3491 0.016612 
0.83721 -0.089599 0.061298 -0.2279 -0.77008 -0.59585 0.019102 
0.84355 -0.09045 0.058889 -0.21552 -0.78919 -0.57509 0.012769 
0.85254 -0.091439 0.059008 -0.10703 -0.86991 -0.48145 0.0094766 
0.87504 -0.090874 0.06494 -0.21319 0.97684 0.018362 0.013897 
0.88666 -0.0881 0.06566 -0.34763 0.89311 -0.28548 0.017704 
0.89463 -0.084218 0.064722 -0.47451 0.7343 -0.48544 0.010815 
0.90021 -0.081585 0.063067 -0.57792 0.6549 -0.48694 0.011368 
0.90705 -0.080007 0.058795 -0.70523 0.60403 -0.37121 0.022431 
0.89464 -0.078367 0.073344 -0.62757 0.42767 -0.65058 0.028676 
0.8989 -0.078056 0.068161 -0.58766 0.4968 -0.63863 0.021154 
0.90488 -0.074264 0.065206 -0.73255 0.29114 -0.61531 0.021031 
0.90835 -0.073099 0.060987 -0.78716 0.2454 -0.56582 0.029935 
0.89634 -0.060623 0.072893 -0.69971 -0.26145 -0.66486 0.0093956 
0.89757 -0.059435 0.070431 -0.69051 -0.32132 -0.64803 0.0086076 
0.90479 -0.065345 0.065367 -0.69233 -0.060301 -0.71906 0.010303 
0.91109 -0.065402 0.059816 -0.8194 -0.13217 -0.55778 0.077592 
0.9136 -0.067739 0.05645 -0.9242 0.067469 -0.3759 0.079053 
0.83486 -0.048941 0.056811 -0.24309 0.59592 -0.76537 0.014011 
0.83898 -0.046931 0.058036 -0.28306 0.67466 -0.68169 0.011233 
0.8898 -0.047005 0.068681 -0.59731 -0.6344 -0.49068 0.0094935 
0.89754 -0.053659 0.066333 -0.6703 -0.50102 -0.54743 0.006194 
0.90228 -0.056684 0.063275 -0.62076 -0.48955 -0.61237 0.006791 
0.90834 -0.059491 0.059087 -0.73743 -0.36405 -0.56892 0.078318 
0.91246 -0.060068 0.056479 -0.90064 -0.27267 -0.33839 0.078549 
0.83679 -0.045661 0.061667 -0.26243 0.75099 -0.60592 0.019253 
0.8436 -0.042038 0.06372 -0.22991 0.82557 -0.51534 0.013564 
0.85433 -0.039859 0.062566 -0.11352 0.94269 -0.31376 0.0076699 
0.86526 -0.040361 0.064245 -0.074401 -0.9898 0.12153 0.012264 
0.87506 -0.041271 0.065851 -0.19072 -0.97514 -0.11278 0.007233 
0.88539 -0.043139 0.065507 -0.34903 -0.90671 -0.23676 0.010211 
0.89336 -0.047425 0.06352 -0.5248 -0.7557 -0.39179 0.025519 
0.89942 -0.051272 0.061918 -0.59382 -0.6511 -0.4727 0.01148 
0.90761 -0.054598 0.056313 -0.72055 -0.58662 -0.3697 0.05463 
0.84055 -0.041349 0.066341 -0.21456 0.89195 -0.39799 0.029844 
0.84563 -0.038938 0.066938 -0.24252 0.92611 -0.28896 0.017006 
0.85449 -0.039046 0.065588 -0.081955 0.95298 -0.29174 0.01098 
0.86489 -0.039614 0.066147 -0.074348 -0.9898 0.12154 0.012268 
0.87425 -0.040988 0.064532 -0.1619 -0.98406 -0.073649 0.01162 
0.88286 -0.04234 0.063615 -0.28337 -0.94279 -0.17562 0.0087349 
0.88971 -0.043982 0.062572 -0.43896 -0.84691 -0.30009 0.011416 
0.89683 -0.047367 0.060013 -0.54163 -0.73977 -0.39922 0.018346 
0.85721 -0.03853 0.069304 0.0018208 0.99285 -0.11939 0.01693 
0.84853 -0.096297 0.07384 -0.062375 0.9583 0.27887 0.0086782 
0.85574 -0.097029 0.075938 -0.17161 0.97223 0.15912 0.014872 
0.86625 -0.093917 0.075258 -0.3123 0.94996 0.00705 0.0072982 
0.84869 -0.097178 0.07213 -0.0056323 0.95943 0.28188 0.010246 
0.85506 -0.096992 0.074477 -0.17165 0.97222 0.15915 0.014867 
0.86492 -0.094565 0.074202 -0.31126 0.9503 0.0072027 0.0075802 
0.87379 -0.091363 0.074407 -0.37452 0.91479 -0.15134 0.017975 
0.88213 -0.087883 0.072527 -0.47011 0.80844 -0.35415 0.013709 
0.88991 -0.085135 0.068771 -0.50809 0.73035 -0.45654 0.011059 
0.86053 -0.095931 0.072754 -0.17418 0.96512 0.19547 0.0076396 
0.86782 -0.093644 0.075733 -0.3917 0.91902 -0.044341 0.0089138 
0.87556 -0.090022 0.076633 -0.44912 0.8691 -0.20728 0.016085 
0.88392 -0.08507 0.074484 -0.53904 0.74113 -0.4002 0.014969 
0.89077 -0.080864 0.072605 -0.57852 0.61633 -0.53427 0.0088104 
0.89744 -0.078898 0.068856 -0.61886 0.50705 -0.59993 0.020132 
0.90407 -0.077847 0.06477 -0.71851 0.44245 -0.53665 0.025549 
0.88363 -0.079945 0.083995 -0.65637 0.54073 -0.52611 0.015448 
0.88856 -0.077609 0.079378 -0.68586 0.39467 -0.61142 0.01584 
0.89335 -0.075129 0.074931 -0.70964 0.32304 -0.62615 0.020887 
0.89768 -0.07326 0.071693 -0.68353 0.16836 -0.71024 0.012668 
0.90634 -0.072573 0.064476 -0.74654 0.21689 -0.62899 0.021088 
0.88576 -0.060585 0.085778 -0.74227 -0.20677 -0.6374 0.015073 
0.89027 -0.063085 0.080772 -0.73557 -0.13708 -0.66343 0.0099997 
0.89449 -0.065782 0.075892 -0.73774 -0.041959 -0.67378 0.011087 
0.89929 -0.065321 0.070071 -0.70087 -0.10509 -0.70551 0.013103 
0.90429 -0.065165 0.065695 -0.70199 -0.06003 -0.70966 0.010871 
0.88133 -0.046943 0.07903 -0.55018 -0.68839 -0.47268 0.010727 
0.88899 -0.055583 0.078432 -0.69969 -0.40273 -0.59012 0.0059672 
0.89326 -0.055826 0.07275 -0.68176 -0.4229 -0.59696 0.0062357 
0.89758 -0.05863 0.068726 -0.67143 -0.38848 -0.63108 0.011871 
0.84722 -0.038538 0.071895 -0.18234 0.97311 -0.14074 0.026181 
0.85546 -0.038243 0.073364 -0.045861 -0.99789 -0.045958 0.013963 
0.86616 -0.040384 0.076039 -0.23778 -0.95255 -0.19003 0.0044186 
0.87578 -0.042808 0.075197 -0.33784 -0.88643 -0.31639 0.011813 
0.88409 -0.04689 0.07494 -0.50385 -0.73083 -0.46046 0.017906 
0.89088 -0.049624 0.07072 -0.62423 -0.57735 -0.52631 0.0060164 
0.89602 -0.052278 0.066744 -0.65628 -0.54728 -0.51939 0.0084317 
0.84744 -0.037823 0.073409 -0.1615 0.9846 -0.066956 0.030086 
0.85524 -0.038292 0.075351 -0.045974 -0.99789 -0.045939 0.013944 
0.86351 -0.039673 0.073872 -0.15249 -0.98071 -0.12229 0.0064345 
0.87321 -0.042025 0.073608 -0.28087 -0.93133 -0.23181 0.0088407 
0.88056 -0.044156 0.072155 -0.41421 -0.8268 -0.38056 0.013989 
0.88768 -0.044965 0.06793 -0.4788 -0.81092 -0.3364 0.016915 
0.85661 -0.096759 0.083264 -0.20947 0.96394 -0.16414 0.062677 
0.85978 -0.09664 0.082554 -0.27589 0.94737 -0.16243 0.062233 
0.85629 -0.097845 0.083115 -0.20918 0.96396 -0.16437 0.062697 
0.86438 -0.09422 0.085007 -0.37174 0.88611 -0.27681 0.054746 
0.8728 -0.089915 0.082696 -0.54004 0.7937 -0.27999 0.010705 
0.87916 -0.086054 0.080207 -0.59159 0.69705 -0.40516 0.010217 
0.86902 -0.091282 0.089297 -0.48379 0.78955 -0.37757 0.049111 
0.87566 -0.086341 0.084667 -0.60335 0.70829 -0.36646 0.007343 
0.88067 -0.082185 0.082317 -0.63179 0.61831 -0.46747 0.010841 
0.8876 -0.079242 0.07835 -0.6557 0.48669 -0.57723 0.016158 
0.87951 -0.078337 0.089965 -0.74425 0.3854 -0.54549 0.011656 
0.88509 -0.074625 0.084172 -0.73975 0.30093 -0.60185 0.017166 
0.88987 -0.073554 0.079837 -0.70523 0.29528 -0.64456 0.01671 
0.89544 -0.071448 0.074588 -0.71306 0.091857 -0.69506 0.013724 
0.87466 -0.060074 0.097287 -0.55753 -0.27239 -0.78419 0.021448 
0.88112 -0.059274 0.090565 -0.74297 -0.25489 -0.61889 0.0083328 
0.88602 -0.064997 0.08574 -0.7593 -0.1228 -0.63905 0.012651 
0.89018 -0.065435 0.079719 -0.7576 -0.047902 -0.65095 0.010582 
0.89521 -0.065385 0.074113 -0.7289 -0.070534 -0.68098 0.012525 
0.87195 -0.046198 0.089474 -0.49086 -0.6828 -0.54115 0.013634 
0.87907 -0.053497 0.088751 -0.67281 -0.44811 -0.58866 0.0049905 
0.88371 -0.056031 0.083775 -0.70214 -0.43032 -0.56729 0.013339 
0.88767 -0.057287 0.079879 -0.70891 -0.37303 -0.59858 0.006724 
0.85493 -0.041043 0.08558 -0.046432 -0.91737 -0.39533 0.019126 
0.86539 -0.04278 0.08596 -0.2452 -0.86406 -0.43963 0.020979 
0.87417 -0.046278 0.084984 -0.48218 -0.77417 -0.41007 0.011747 
0.88112 -0.050279 0.082386 -0.63191 -0.59945 -0.49127 0.01125 
0.88563 -0.052404 0.078942 -0.68179 -0.49233 -0.54109 0.010559 
0.84862 -0.040481 0.080188 -0.046898 0.98346 0.17492 0.020109 
0.85587 -0.039042 0.081567 -0.079434 -0.96562 -0.24752 0.011171 
0.86278 -0.040821 0.083724 -0.17774 -0.93476 -0.30763 0.0091409 
0.87071 -0.043258 0.081438 -0.37607 -0.85297 -0.36196 0.010002 
0.87806 -0.045411 0.078057 -0.45549 -0.81034 -0.36861 0.016921 
0.86433 -0.09265 0.089702 -0.41684 0.83819 -0.35168 0.050054 
0.86461 -0.092136 0.092148 -0.4843 0.79713 -0.3606 0.049388 
0.86984 -0.088545 0.091258 -0.54482 0.71836 -0.43259 0.050762 
0.86142 -0.081897 0.08826 -0.38299 0.71377 -0.58639 0.053082 
0.86681 -0.08586 0.097179 -0.54346 0.59784 -0.58927 0.060459 
0.87264 -0.083672 0.093777 -0.54828 0.57988 -0.60261 0.063758 
0.87867 -0.079535 0.088845 -0.68903 0.50086 -0.5238 0.0072398 
0.87122 -0.074869 0.10132 -0.58901 0.17777 -0.78833 0.026468 
0.87573 -0.074602 0.096342 -0.64876 0.16732 -0.74237 0.025316 
0.88125 -0.073621 0.089751 -0.74821 0.23484 -0.62051 0.0057086 
0.88301 -0.071427 0.087808 -0.77766 0.15386 -0.60957 0.010256 
0.86161 -0.06291 0.093234 -0.04457 -0.24988 -0.96725 0.033505 
0.86994 -0.061072 0.10025 -0.064022 -0.1993 -0.97785 0.035057 
0.87733 -0.065039 0.095533 -0.68468 -0.089966 -0.72327 0.016569 
0.88207 -0.065225 0.089929 -0.75419 -0.067686 -0.65315 0.0088994 
0.88516 -0.06627 0.085813 -0.77027 -0.0032799 -0.63771 0.012392 
0.85894 -0.052817 0.095548 -0.067402 0.50465 0.86069 0.034006 
0.86793 -0.053394 0.097874 -0.11339 -0.43627 -0.89264 0.044717 
0.87358 -0.05555 0.095638 -0.53865 -0.43468 -0.72174 0.010383 
0.88084 -0.058131 0.088566 -0.719 -0.33384 -0.60958 0.004383 
0.88401 -0.060172 0.085166 -0.75177 -0.17902 -0.63466 0.015942 
0.85684 -0.046306 0.092066 0.029596 -0.69211 -0.72119 0.053218 
0.86594 -0.046478 0.092601 -0.22661 -0.70928 -0.6675 0.01739 
0.87074 -0.048794 0.092116 -0.33145 -0.65448 -0.67955 0.021333 
0.87907 -0.051167 0.086778 -0.6399 -0.57203 -0.51314 0.0090617 
0.85685 -0.042449 0.087283 -0.091935 -0.89712 -0.43211 0.018229 
0.86407 -0.044082 0.089194 -0.18734 -0.80851 -0.55787 0.024197 
0.86948 -0.045358 0.089303 -0.3364 -0.74773 -0.57248 0.021493 
0.87011 -0.084711 0.097497 -0.55201 0.57881 -0.60022 0.063112 
0.86649 -0.08382 0.097579 -0.52502 0.59229 -0.61118 0.061839 
0.87123 -0.081259 0.097966 -0.57251 0.51631 -0.63691 0.067602 
0.87511 -0.078273 0.095846 -0.69723 0.35225 -0.62434 0.015175 
0.86717 -0.074561 0.10094 -0.27258 -0.055733 0.96052 0.069734 
0.873 -0.073684 0.098959 -0.60911 0.14657 -0.77942 0.026254 
0.87546 -0.073181 0.097323 -0.66553 0.12539 -0.73576 0.024597 
0.86649 -0.065529 0.099015 -0.077457 -0.15863 -0.9843 0.039084 
0.87276 -0.064952 0.09866 -0.31858 -0.15946 -0.93439 0.057218 
0.87549 -0.066003 0.097658 -0.61829 -0.063452 -0.78338 0.017074 
0.86501 -0.05679 0.099002 -0.047609 -0.33127 -0.94233 0.036699 
0.87218 -0.058093 0.09729 -0.36204 -0.34437 -0.86622 0.065796 
0.87512 -0.060354 0.096704 -0.55753 -0.27239 -0.78419 0.021448 
0.87147 -0.051743 0.094219 -0.42532 -0.55152 -0.71759 0.022501 
0.87412 -0.053461 0.094227 -0.54478 -0.46353 -0.69882 0.011588 
0.87371 -0.068061 0.099497 -0.55033 -0.051464 -0.83336 0.023682 
3 0 19 58
3 20 0 58
3 1 20 58
3 25 1 58
3 3 25 58
3 24 3 58
3 24 19 58
3 57 24 19
3 50 57 19
3 20 50 19
3 20 0 19
3 51 50 20
3 15 51 20
3 52 15 20
3 16 52 20
3 21 16 20
3 26 21 20
3 26 1 20
3 4 25 1
3 4 26 1
3 4 3 25
3 30 4 3
3 11 30 3
3 6 11 3
3 34 6 3
3 29 34 3
3 64 29 3
3 28 64 3
3 2 28 3
3 18 2 3
3 18 24 3
3 18 57 24
3 49 18 57
3 14 49 57
3 14 50 57
3 49 14 50
3 103 49 50
3 43 103 50
3 44 43 50
3 95 44 50
3 45 95 50
3 45 51 50
3 46 45 51
3 46 15 51
3 52 46 15
3 59 21 16
3 46 52 16
3 26 59 21
3 7 4 26
3 8 7 26
3 31 8 26
3 30 7 4
3 7 11 30
3 65 6 11
3 34 65 11
3 34 6 65
3 12 34 11
3 35 12 11
3 70 35 11
3 39 70 11
3 13 39 11
3 36 13 11
3 38 12 34
3 69 38 34
3 33 69 34
3 9 33 34
3 9 29 34
3 5 9 29
3 5 64 29
3 5 28 64
3 9 5 28
3 33 9 28
3 68 33 28
3 32 68 28
3 27 32 28
3 63 27 28
3 22 63 28
3 56 22 28
3 23 56 28
3 23 2 28
3 56 23 2
3 56 18 2
3 17 56 18
3 17 49 18
3 102 17 49
3 48 102 49
3 42 48 49
3 93 42 49
3 93 103 49
3 93 43 103
3 94 93 43
3 94 44 43
3 85 94 44
3 85 95 44
3 86 85 95
3 87 46 45
3 87 95 45
3 97 87 46
3 31 26 59
3 97 46 16
3 97 16 59
3 8 11 7
3 36 8 31
3 36 11 8
3 70 35 12
3 70 38 12
3 41 39 70
3 75 41 70
3 75 38 70
3 40 13 39
3 40 41 39
3 40 36 13
3 78 75 38
3 74 78 38
3 115 74 38
3 73 115 38
3 73 69 38
3 114 73 69
3 114 33 69
3 114 68 33
3 113 114 68
3 67 113 68
3 67 32 68
3 62 67 32
3 108 62 32
3 108 27 32
3 62 108 27
3 62 27 63
3 62 22 63
3 54 62 22
3 55 54 22
3 55 56 22
3 102 55 56
3 102 17 56
3 101 55 102
3 101 48 102
3 47 101 48
3 92 47 48
3 92 42 48
3 83 92 42
3 146 83 42
3 146 93 42
3 84 146 93
3 84 94 93
3 84 85 94
3 139 86 85
3 139 84 85
3 96 97 87
3 142 88 97
3 142 96 97
3 71 40 41
3 76 71 41
3 80 76 41
3 79 80 41
3 79 75 41
3 124 79 75
3 124 78 75
3 37 71 40
3 37 36 40
3 123 124 78
3 78 115 74
3 123 78 115
3 129 123 115
3 122 129 115
3 122 73 115
3 72 122 73
3 72 114 73
3 72 113 114
3 122 72 113
3 170 122 113
3 121 170 113
3 176 121 113
3 169 176 113
3 168 169 113
3 112 168 113
3 161 112 113
3 60 161 113
3 66 60 113
3 107 66 113
3 107 67 113
3 107 62 67
3 107 54 62
3 66 107 54
3 61 66 54
3 106 61 54
3 60 106 54
3 161 60 54
3 53 161 54
3 100 53 54
3 155 100 54
3 155 55 54
3 155 101 55
3 47 155 101
3 91 155 47
3 91 92 47
3 82 91 92
3 136 82 92
3 145 136 92
3 137 145 92
3 137 83 92
3 137 146 83
3 134 137 146
3 192 134 146
3 197 192 146
3 138 197 146
3 147 138 146
3 147 84 146
3 139 147 84
3 86 147 139
3 96 88 142
3 77 76 71
3 77 37 71
3 116 77 76
3 132 80 79
3 132 124 79
3 131 132 124
3 131 123 124
3 130 131 123
3 130 129 123
3 178 130 129
3 186 178 129
3 177 186 129
3 177 122 129
3 128 177 122
3 128 170 122
3 128 121 170
3 128 176 121
3 177 128 176
3 186 177 176
3 185 186 176
3 228 185 176
3 184 228 176
3 175 184 176
3 120 175 176
3 120 169 176
3 120 168 169
3 175 120 168
3 184 175 168
3 220 184 168
3 174 220 168
3 219 174 168
3 119 219 168
3 111 119 168
3 105 111 168
3 105 112 168
3 105 161 112
3 105 53 161
3 162 106 60
3 162 66 60
3 162 61 66
3 162 106 61
3 111 105 53
3 160 111 53
3 98 160 53
3 99 98 53
3 90 99 53
3 154 90 53
3 154 100 53
3 154 155 100
3 154 91 155
3 90 154 91
3 144 90 91
3 136 144 91
3 136 82 91
3 135 144 136
3 203 135 136
3 195 203 136
3 204 195 136
3 204 145 136
3 204 137 145
3 204 134 137
3 196 204 134
3 196 192 134
3 249 197 192
3 253 249 192
3 253 196 192
3 198 138 197
3 198 249 197
3 147 198 138
3 81 116 77
3 125 80 132
3 131 178 130
3 187 131 178
3 187 186 178
3 229 187 186
3 229 185 186
3 238 229 185
3 243 238 185
3 237 243 185
3 237 228 185
3 236 228 184
3 227 236 184
3 183 227 184
3 183 220 184
3 226 183 220
3 219 226 220
3 219 174 220
3 167 119 219
3 110 167 119
3 110 111 119
3 159 110 111
3 104 159 111
3 104 160 111
3 104 98 160
3 89 152 98
3 153 89 98
3 153 99 98
3 89 153 99
3 143 89 99
3 143 90 99
3 143 144 90
3 143 135 144
3 89 143 135
3 202 89 135
3 194 202 135
3 194 203 135
3 194 195 203
3 244 194 195
3 191 244 195
3 248 191 195
3 248 204 195
3 248 196 204
3 288 253 196
3 287 288 196
3 245 287 196
3 245 248 196
3 246 198 249
3 246 249 253
3 290 246 253
3 290 288 253
3 205 147 198
3 126 133 81
3 126 77 81
3 283 238 243
3 316 283 243
3 275 316 243
3 274 275 243
3 274 237 243
3 274 228 236
3 274 237 228
3 235 274 236
3 235 227 236
3 235 183 227
3 235 226 183
3 104 110 167
3 104 159 110
3 247 191 244
3 245 248 191
3 245 247 191
3 320 290 288
3 320 287 288
3 289 245 287
3 254 198 246
3 254 290 246
3 250 254 290
3 255 250 290
3 291 255 290
3 294 291 290
3 293 294 290
3 323 293 290
3 323 320 290
3 190 133 126
3 181 190 126
3 317 316 283
3 276 317 283
3 284 276 283
3 284 238 283
3 282 275 316
3 315 282 316
3 310 315 316
3 345 310 316
3 346 345 316
3 346 317 316
3 274 282 275
3 281 282 274
3 281 274 235
3 321 323 320
3 198 250 254
3 251 198 250
3 251 255 250
3 292 251 255
3 294 292 255
3 294 291 255
3 295 292 294
3 260 295 294
3 326 260 294
3 351 326 294
3 325 351 294
3 322 325 294
3 322 293 294
3 324 322 293
3 324 323 293
3 349 324 323
3 180 189 190
3 232 180 190
3 232 181 190
3 171 232 181
3 233 171 181
3 172 233 181
3 109 172 181
3 182 109 181
3 117 182 181
3 117 126 181
3 311 346 317
3 318 311 317
3 318 276 317
3 277 318 276
3 277 284 276
3 285 277 284
3 230 285 284
3 230 238 284
3 281 315 282
3 345 310 315
3 341 345 315
3 341 346 345
3 342 341 346
3 343 342 346
3 347 343 346
3 312 347 346
3 312 311 346
3 199 198 251
3 206 199 251
3 252 206 251
3 257 252 251
3 256 257 251
3 295 256 251
3 295 292 251
3 296 256 295
3 261 296 295
3 261 260 295
3 299 261 260
3 298 299 260
3 330 298 260
3 329 330 260
3 297 329 260
3 297 326 260
3 297 351 326
3 329 297 351
3 328 329 351
3 354 328 351
3 363 354 351
3 353 363 351
3 327 353 351
3 350 327 351
3 348 350 351
3 348 325 351
3 349 348 325
3 349 324 322
3 349 322 325
3 350 348 349
3 241 179 189
3 241 180 189
3 241 232 180
3 231 241 232
3 286 231 232
3 221 286 232
3 279 221 232
3 272 279 232
3 280 272 232
3 222 280 232
3 223 222 232
3 223 171 232
3 233 223 171
3 234 223 233
3 234 172 233
3 234 109 172
3 223 234 109
3 173 223 109
3 215 173 109
3 224 215 109
3 163 224 109
3 164 163 109
3 225 164 109
3 217 225 109
3 218 217 109
3 165 218 109
3 118 182 109
3 118 117 182
3 127 118 117
3 127 126 117
3 312 318 311
3 344 312 318
3 313 344 318
3 270 313 318
3 319 270 318
3 285 319 318
3 285 277 318
3 270 319 285
3 313 270 285
3 314 313 285
3 278 314 285
3 231 278 285
3 231 241 240
3 240 231 285
3 240 230 285
3 239 240 230
3 239 238 230
3 358 336 341
3 337 358 341
3 361 337 341
3 361 342 341
3 361 343 342
3 338 361 343
3 362 338 343
3 307 362 343
3 306 307 343
3 306 347 343
3 306 312 347
3 307 306 312
3 307 344 312
3 193 206 199
3 149 193 206
3 200 149 206
3 207 200 206
3 207 252 206
3 208 207 252
3 258 208 252
3 263 258 252
3 210 263 252
3 210 257 252
3 262 210 257
3 299 262 257
3 261 299 257
3 296 261 257
3 296 256 257
3 263 262 299
3 263 210 262
3 300 263 299
3 267 300 299
3 304 267 299
3 335 304 299
3 330 335 299
3 330 298 299
3 334 335 330
3 334 329 330
3 354 334 329
3 354 328 329
3 334 363 354
3 357 334 363
3 356 357 363
3 332 356 363
3 355 332 363
3 355 353 363
3 355 327 353
3 188 189 179
3 179 240 241
3 278 286 231
3 278 221 286
3 278 279 221
3 314 278 279
3 271 314 279
3 271 272 279
3 309 271 272
3 266 309 272
3 267 266 272
3 300 267 272
3 305 300 272
3 214 305 272
3 268 214 272
3 215 268 272
3 215 224 268
3 273 215 272
3 223 273 272
3 223 222 280
3 223 280 272
3 215 273 223
3 223 215 173
3 268 163 224
3 269 268 163
3 216 269 163
3 213 216 163
3 217 213 163
3 217 225 164
3 217 164 163
3 158 213 217
3 158 218 217
3 213 158 218
3 339 307 344
3 308 339 344
3 308 313 344
3 308 314 313
3 308 271 314
3 188 179 240
3 188 239 240
3 332 358 336
3 355 332 336
3 331 355 336
3 301 332 358
3 359 301 358
3 359 337 358
3 301 359 337
3 338 301 337
3 338 361 337
3 301 338 362
3 301 307 362
3 302 301 307
3 302 339 307
3 141 193 149
3 201 200 149
3 208 201 200
3 208 207 200
3 150 201 208
3 151 150 208
3 209 151 208
3 157 209 208
3 156 157 208
3 259 156 208
3 211 259 208
3 211 258 208
3 211 263 258
3 212 211 263
3 264 212 263
3 269 264 263
3 268 269 263
3 305 268 263
3 305 300 263
3 266 304 267
3 266 335 304
3 303 266 335
3 303 334 335
3 266 303 334
3 309 266 334
3 265 309 334
3 340 265 334
3 308 340 334
3 339 308 334
3 302 339 334
3 360 302 334
3 356 360 334
3 356 357 333
3 333 356 334
3 333 357 334
3 301 360 356
3 301 332 356
3 352 327 355
3 308 309 271
3 340 308 309
3 340 265 309
3 214 268 305
3 264 216 269
3 264 213 216
3 212 264 213
3 156 212 213
3 157 156 213
3 209 157 213
3 360 302 301
3 209 150 201
3 209 151 150
3 212 259 156
3 212 211 259
